<svg width="12" height="14" viewBox="0 0 12 14" fill="none" xmlns="http://www.w3.org/2000/svg">
<path d="M7.0917 0.165345C7.04131 0.112905 6.9811 0.0712576 6.91461 0.0428593C6.84812 0.014461 6.77671 -0.000112233 6.70459 1.82571e-07C6.63246 0.000112598 6.5611 0.0149083 6.4947 0.0435137C6.42829 0.0721191 6.3682 0.113955 6.31797 0.166551L0.168454 6.57937C0.0604476 6.69199 -5.68798e-07 6.84303 -5.82546e-07 7.0003C-5.96295e-07 7.15757 0.0604475 7.30861 0.168454 7.42123L6.31797 13.8341C6.36828 13.8866 6.42843 13.9283 6.49488 13.9568C6.56132 13.9853 6.63272 14 6.70484 14C6.77696 14 6.84835 13.9853 6.91479 13.9568C6.98124 13.9283 7.04139 13.8866 7.0917 13.8341C7.19522 13.7264 7.25317 13.5818 7.25317 13.4312C7.25317 13.2807 7.19522 13.1361 7.0917 13.0284L1.30888 7.0003L7.0917 0.969812C7.19486 0.86217 7.25259 0.717844 7.25259 0.567579C7.25259 0.417313 7.19486 0.272987 7.0917 0.165345ZM11.8385 0.165345C11.7881 0.112906 11.7279 0.071258 11.6614 0.0428597C11.5949 0.0144614 11.5235 -0.000111818 11.4514 5.97552e-07C11.3793 0.000113013 11.3079 0.0149087 11.2415 0.0435141C11.1751 0.0721196 11.115 0.113955 11.0648 0.166551L4.91528 6.57937C4.80728 6.69199 4.74683 6.84304 4.74683 7.0003C4.74683 7.15757 4.80728 7.30861 4.91528 7.42123L11.0648 13.8341C11.1151 13.8866 11.1753 13.9283 11.2417 13.9568C11.3082 13.9853 11.3795 14 11.4517 14C11.5238 14 11.5952 13.9853 11.6616 13.9568C11.7281 13.9283 11.7882 13.8866 11.8385 13.8341C11.942 13.7264 12 13.5818 12 13.4312C12 13.2807 11.942 13.1361 11.8385 13.0284L6.05571 7.0003L11.8385 0.969812C11.9417 0.86217 11.9994 0.717844 11.9994 0.567579C11.9994 0.417314 11.9417 0.272987 11.8385 0.165345Z" fill="#3A3836"/>
</svg>
