<svg width="28" height="28" viewBox="0 0 28 28" fill="none" xmlns="http://www.w3.org/2000/svg">
<path d="M9.125 9.25C8.89294 9.25 8.67038 9.34219 8.50628 9.50628C8.34219 9.67038 8.25 9.89294 8.25 10.125C8.25 10.3571 8.34219 10.5796 8.50628 10.7437C8.67038 10.9078 8.89294 11 9.125 11H17.875C18.1071 11 18.3296 10.9078 18.4937 10.7437C18.6578 10.5796 18.75 10.3571 18.75 10.125C18.75 9.89294 18.6578 9.67038 18.4937 9.50628C18.3296 9.34219 18.1071 9.25 17.875 9.25H9.125ZM9.125 13.625C8.89294 13.625 8.67038 13.7172 8.50628 13.8813C8.34219 14.0454 8.25 14.2679 8.25 14.5C8.25 14.7321 8.34219 14.9546 8.50628 15.1187C8.67038 15.2828 8.89294 15.375 9.125 15.375H14.375C14.6071 15.375 14.8296 15.2828 14.9937 15.1187C15.1578 14.9546 15.25 14.7321 15.25 14.5C15.25 14.2679 15.1578 14.0454 14.9937 13.8813C14.8296 13.7172 14.6071 13.625 14.375 13.625H9.125ZM9.125 18C8.89294 18 8.67038 18.0922 8.50628 18.2563C8.34219 18.4204 8.25 18.6429 8.25 18.875C8.25 19.1071 8.34219 19.3296 8.50628 19.4937C8.67038 19.6578 8.89294 19.75 9.125 19.75H17.875C18.1071 19.75 18.3296 19.6578 18.4937 19.4937C18.6578 19.3296 18.75 19.1071 18.75 18.875C18.75 18.6429 18.6578 18.4204 18.4937 18.2563C18.3296 18.0922 18.1071 18 17.875 18H9.125ZM7.375 4C6.21468 4 5.10188 4.46094 4.28141 5.28141C3.46094 6.10188 3 7.21468 3 8.375V20.625C3 21.7853 3.46094 22.8981 4.28141 23.7186C5.10188 24.5391 6.21468 25 7.375 25H19.625C20.7853 25 21.8981 24.5391 22.7186 23.7186C23.5391 22.8981 24 21.7853 24 20.625V8.375C24 7.21468 23.5391 6.10188 22.7186 5.28141C21.8981 4.46094 20.7853 4 19.625 4H7.375ZM4.75 8.375C4.75 7.67881 5.02656 7.01113 5.51884 6.51884C6.01113 6.02656 6.67881 5.75 7.375 5.75H19.625C20.3212 5.75 20.9889 6.02656 21.4812 6.51884C21.9734 7.01113 22.25 7.67881 22.25 8.375V20.625C22.25 21.3212 21.9734 21.9889 21.4812 22.4812C20.9889 22.9734 20.3212 23.25 19.625 23.25H7.375C6.67881 23.25 6.01113 22.9734 5.51884 22.4812C5.02656 21.9889 4.75 21.3212 4.75 20.625V8.375Z" fill="#3A3836"/>
</svg>
