<svg width="28" height="28" viewBox="0 0 28 28" fill="none" xmlns="http://www.w3.org/2000/svg">
<path d="M23.7633 16.7183L21.5769 14.5403V11.655C21.5744 9.66113 20.8298 7.73899 19.4871 6.26027C18.1444 4.78155 16.299 3.8513 14.3077 3.6494V2H12.6923V3.6494C10.701 3.8513 8.85558 4.78155 7.51287 6.26027C6.17017 7.73899 5.42558 9.66113 5.42308 11.655V14.5403L3.23665 16.7183C3.08517 16.8691 3.00005 17.0738 3 17.2871V19.7009C3 19.9143 3.0851 20.1189 3.23657 20.2698C3.38804 20.4207 3.59348 20.5055 3.80769 20.5055H9.46154V21.1306C9.44361 22.1515 9.80465 23.1429 10.4754 23.9149C11.1462 24.6869 12.0794 25.185 13.0962 25.3137C13.6576 25.3691 14.2246 25.3069 14.7605 25.131C15.2964 24.9551 15.7894 24.6694 16.2078 24.2924C16.6262 23.9153 16.9608 23.4551 17.1899 22.9415C17.4191 22.4278 17.5378 21.8721 17.5385 21.3101V20.5055H23.1923C23.4065 20.5055 23.612 20.4207 23.7634 20.2698C23.9149 20.1189 24 19.9143 24 19.7009V17.2871C24 17.0738 23.9148 16.8691 23.7633 16.7183ZM15.9231 21.3101C15.9231 21.9502 15.6678 22.5642 15.2134 23.0168C14.759 23.4695 14.1426 23.7238 13.5 23.7238C12.8574 23.7238 12.241 23.4695 11.7866 23.0168C11.3322 22.5642 11.0769 21.9502 11.0769 21.3101V20.5055H15.9231V21.3101ZM22.3846 18.8963H4.61538V17.6202L6.80181 15.4422C6.95329 15.2914 7.03842 15.0867 7.03846 14.8734V11.655C7.03846 9.94791 7.71923 8.31072 8.931 7.1036C10.1428 5.89649 11.7863 5.21834 13.5 5.21834C15.2137 5.21834 16.8572 5.89649 18.069 7.1036C19.2808 8.31072 19.9615 9.94791 19.9615 11.655V14.8734C19.9616 15.0867 20.0467 15.2914 20.1982 15.4422L22.3846 17.6202V18.8963Z" fill="#3A3836"/>
</svg>
