<svg width="28" height="28" viewBox="0 0 28 28" fill="none" xmlns="http://www.w3.org/2000/svg">
<path fill-rule="evenodd" clip-rule="evenodd" d="M9.65833 3C10.206 3 10.65 3.44399 10.65 3.99167V5.33334H18V3.99167C18 3.44399 18.444 3 18.9917 3C19.5394 3 19.9833 3.44399 19.9833 3.99167V5.33334H21.325C22.2068 5.33334 23.0526 5.68365 23.6761 6.30721C24.2997 6.93076 24.65 7.77649 24.65 8.65834V22.6583C24.65 23.5402 24.2997 24.3859 23.6761 25.0095C23.0526 25.633 22.2068 25.9833 21.325 25.9833H7.325C6.44315 25.9833 5.59743 25.633 4.97387 25.0095C4.35031 24.3859 4 23.5402 4 22.6583V8.65834C4 7.77649 4.35031 6.93077 4.97387 6.30721C5.59743 5.68365 6.44316 5.33334 7.325 5.33334H8.66667V3.99167C8.66667 3.44399 9.11065 3 9.65833 3ZM7.325 7.31667C6.96917 7.31667 6.62791 7.45802 6.3763 7.70964C6.12469 7.96125 5.98333 8.3025 5.98333 8.65834V10H22.6667V8.65834C22.6667 8.30251 22.5253 7.96125 22.2737 7.70964C22.0221 7.45802 21.6808 7.31667 21.325 7.31667H7.325ZM22.6667 11.9833H5.98333V22.6583C5.98333 23.0142 6.12469 23.3554 6.3763 23.607C6.62791 23.8586 6.96917 24 7.325 24H21.325C21.6808 24 22.0221 23.8586 22.2737 23.607C22.5253 23.3554 22.6667 23.0142 22.6667 22.6583V11.9833Z" fill="#3A3836"/>
</svg>
