<svg width="20" height="20" viewBox="0 0 20 20" fill="none" xmlns="http://www.w3.org/2000/svg">
<path d="M12.58 4.92C12.0787 4.40943 11.4813 4.00323 10.8221 3.72486C10.163 3.44649 9.45521 3.30148 8.73971 3.29819C8.0242 3.29491 7.31513 3.43341 6.65345 3.70571C5.99177 3.978 5.3906 4.37869 4.88465 4.88464C4.37871 5.39059 3.97802 5.99176 3.70572 6.65344C3.43342 7.31511 3.29492 8.02418 3.29821 8.73969C3.30149 9.4552 3.44651 10.163 3.72487 10.8221C4.00324 11.4813 4.40944 12.0787 4.92001 12.58C5.93898 13.5804 7.31175 14.138 8.73971 14.1314C10.1677 14.1248 11.5353 13.5547 12.545 12.545C13.5547 11.5352 14.1249 10.1676 14.1314 8.73969C14.138 7.31174 13.5804 5.93896 12.58 4.92ZM3.74168 3.74167C5.01903 2.46463 6.73598 1.72381 8.54141 1.67069C10.3469 1.61757 12.1044 2.25617 13.4546 3.45589C14.8048 4.65561 15.6457 6.32583 15.8054 8.12498C15.965 9.92413 15.4313 11.7163 14.3133 13.135L18.7675 17.5892L17.5892 18.7675L13.135 14.3133C11.7158 15.4271 9.92522 15.9575 8.1284 15.7963C6.33157 15.6351 4.66394 14.7945 3.46566 13.4459C2.26739 12.0973 1.62876 10.3424 1.68005 8.53908C1.73134 6.73577 2.46869 5.01997 3.74168 3.74167Z" fill="#3A3836"/>
</svg>
