<svg width="28" height="28" viewBox="0 0 28 28" fill="none" xmlns="http://www.w3.org/2000/svg">
<path d="M23.7043 4.6457L14.4129 1.4793C14.3008 1.44102 14.1504 1.42188 14 1.42188C13.8496 1.42188 13.6992 1.44102 13.5871 1.4793L4.2957 4.6457C4.06875 4.72227 3.88281 4.98477 3.88281 5.22539V18.416C3.88281 18.6566 4.03867 18.9738 4.22734 19.1242L13.6527 26.4688C13.7484 26.5426 13.8715 26.5809 13.9973 26.5809C14.123 26.5809 14.2488 26.5426 14.3418 26.4688L23.7672 19.1242C23.9559 18.9766 24.1117 18.6594 24.1117 18.416V5.22539C24.1172 4.98477 23.9313 4.725 23.7043 4.6457ZM22.1484 17.891L14 24.2402L5.85156 17.891V6.19883L14 3.4207L22.1484 6.19883V17.891ZM11.0168 14.4594L8.89766 16.5785C8.85695 16.6196 8.83411 16.6751 8.83411 16.733C8.83411 16.7909 8.85695 16.8464 8.89766 16.8875L9.82734 17.8172C9.91211 17.902 10.0516 17.902 10.1363 17.8172L12.2555 15.698C13.7785 16.6578 15.8129 16.4746 17.1391 15.1484C18.6785 13.609 18.6785 11.1152 17.1391 9.57578C15.5996 8.03633 13.1059 8.03633 11.5664 9.57578C10.2402 10.902 10.057 12.9391 11.0168 14.4594ZM12.8051 10.8145C13.6609 9.95859 15.0473 9.95859 15.9004 10.8145C16.7562 11.6703 16.7562 13.0566 15.9004 13.9098C15.0445 14.7656 13.6582 14.7656 12.8051 13.9098C11.952 13.0539 11.9492 11.6703 12.8051 10.8145Z" fill="#3A3836"/>
</svg>
