<svg width="28" height="28" viewBox="0 0 28 28" fill="none" xmlns="http://www.w3.org/2000/svg">
<path fill-rule="evenodd" clip-rule="evenodd" d="M12.6788 4.88615L12.4014 6.31074C12.3113 6.77114 12.1183 7.20565 11.8384 7.58338C11.5587 7.96097 11.1991 8.27322 10.7862 8.50102C10.3735 8.72877 9.91612 8.86743 9.4455 8.90921C8.9749 8.95099 8.49991 8.8951 8.05253 8.74466L6.57656 8.24899C5.86393 9.06939 5.30022 9.99549 4.90714 10.9888L6.05325 11.9274C6.41727 12.2257 6.7127 12.5984 6.91614 13.0212C7.11967 13.4442 7.22587 13.9061 7.22587 14.375C7.22587 14.8439 7.11967 15.3058 6.91614 15.7288C6.7127 16.1516 6.41754 16.5241 6.05351 16.8224L4.90724 17.7611C5.30059 18.7545 5.8646 19.6806 6.57756 20.501L8.05253 20.0053C8.49991 19.8549 8.9749 19.799 9.4455 19.8408C9.91612 19.8826 10.3735 20.0212 10.7862 20.249C11.1991 20.4768 11.5587 20.789 11.8384 21.1666C12.1182 21.5443 12.311 21.9779 12.4012 22.4382C12.4011 22.4382 12.4012 22.4383 12.4012 22.4382L12.6805 23.8637C13.8026 24.0454 14.9489 24.0454 16.0709 23.8639L16.3477 22.4385C16.4378 21.9781 16.6306 21.5444 16.9104 21.1666C17.1902 20.789 17.5498 20.4768 17.9627 20.249C18.3754 20.0212 18.8327 19.8826 19.3034 19.8408C19.774 19.799 20.249 19.8549 20.6963 20.0053L22.1725 20.5011C22.8854 19.6808 23.4494 18.7547 23.8427 17.7613L22.6971 16.824C22.3328 16.5257 22.0371 16.1529 21.8335 15.7299C21.6298 15.3068 21.5235 14.8446 21.5235 14.3756C21.5235 13.9065 21.6298 13.4444 21.8335 13.0212C22.0371 12.5983 22.3325 12.2257 22.6968 11.9274L23.8428 10.9889C23.4495 9.9955 22.8855 9.06938 22.1725 8.24902L20.6976 8.74466C20.6975 8.74468 20.6976 8.74464 20.6976 8.74466C20.2502 8.89506 19.7751 8.95098 19.3046 8.90921C18.834 8.86743 18.3766 8.72877 17.9639 8.50102C17.551 8.27322 17.1914 7.96097 16.9117 7.58338C16.6318 7.20565 16.439 6.77192 16.3489 6.31153L16.0696 4.88627C14.9474 4.70462 13.801 4.70458 12.6788 4.88615ZM11.7471 3.28224C13.4762 2.90592 15.2714 2.90592 17.0005 3.28224C17.3417 3.35647 17.606 3.62638 17.6731 3.96896L18.0663 5.97522C18.1056 6.17645 18.1906 6.36998 18.3178 6.54164C18.4451 6.71345 18.6121 6.85996 18.8093 6.9688C19.0067 7.07769 19.2284 7.14557 19.4593 7.16607C19.6902 7.18656 19.9226 7.15898 20.1397 7.08594L22.1533 6.40934C22.4724 6.30209 22.8248 6.3875 23.0595 6.62899C24.2719 7.87669 25.1779 9.37171 25.7074 11.0047C25.8185 11.3475 25.7082 11.7233 25.4294 11.9516L23.8056 13.2813C23.635 13.421 23.501 13.5918 23.4103 13.7803C23.3196 13.9687 23.2735 14.1716 23.2735 14.3756C23.2735 14.5796 23.3196 14.7825 23.4103 14.9708C23.501 15.1593 23.635 15.3301 23.8056 15.4698L25.4291 16.7982C25.7081 17.0264 25.8186 17.4024 25.7074 17.7453C25.1779 19.3783 24.2719 20.8733 23.0595 22.121C22.8249 22.3625 22.4725 22.4479 22.1534 22.3407L20.1389 21.6642C19.9217 21.5911 19.689 21.5634 19.4581 21.5839C19.2272 21.6044 19.0054 21.6723 18.8081 21.7812C18.6109 21.89 18.4439 22.0365 18.3166 22.2084C18.1894 22.38 18.1045 22.5732 18.0651 22.7744C18.0651 22.7745 18.0651 22.7744 18.0651 22.7744L17.6759 24.7795C17.6092 25.1228 17.3446 25.3934 17.003 25.4678C15.2738 25.8441 13.4787 25.8441 11.7496 25.4678C11.4084 25.3935 11.1441 25.1236 11.077 24.781L10.6838 22.7748C10.6444 22.5735 10.5594 22.38 10.4323 22.2084C10.305 22.0365 10.138 21.89 9.94075 21.7812C9.74342 21.6723 9.52166 21.6044 9.29076 21.5839C9.05985 21.5634 8.82753 21.591 8.61034 21.6641L6.59683 22.3407C6.27765 22.4479 5.92525 22.3625 5.69059 22.121C4.4782 20.8733 3.57223 19.3783 3.04271 17.7453C2.93157 17.4025 3.0419 17.0267 3.32068 16.7984L4.94425 15.4689C4.94416 15.469 4.94434 15.4688 4.94425 15.4689C5.11456 15.3292 5.24858 15.1583 5.3392 14.97C5.42979 14.7817 5.47587 14.5789 5.47587 14.375C5.47587 14.1711 5.42979 13.9683 5.3392 13.78C5.24858 13.5917 5.11483 13.421 4.94451 13.2813C4.94442 13.2813 4.9446 13.2814 4.94451 13.2813L3.32068 11.9516C3.04195 11.7234 2.9316 11.3476 3.04265 11.0049C3.57179 9.37199 4.4773 7.87697 5.68922 6.62914C5.92383 6.38758 6.27624 6.30209 6.59546 6.40929L8.61 7.08582C8.82719 7.15886 9.05985 7.18656 9.29076 7.16607C9.52166 7.14557 9.74342 7.07769 9.94075 6.9688C10.138 6.85996 10.305 6.71345 10.4323 6.54164C10.5594 6.37003 10.6443 6.17679 10.6837 5.97562C10.6837 5.97568 10.6837 5.97556 10.6837 5.97562L11.0743 3.96997C11.1411 3.62694 11.4056 3.35655 11.7471 3.28224ZM14.375 11.7507C13.6231 11.7507 12.9096 12.0364 12.3895 12.5333C11.8708 13.0289 11.5873 13.6922 11.5873 14.375C11.5873 15.0578 11.8708 15.7211 12.3895 16.2167C12.9096 16.7136 13.6231 16.9993 14.375 16.9993C15.127 16.9993 15.8405 16.7136 16.3606 16.2167C16.8793 15.7211 17.1628 15.0578 17.1628 14.375C17.1628 13.6922 16.8793 13.0289 16.3606 12.5333C15.8405 12.0364 15.127 11.7507 14.375 11.7507ZM11.1806 11.2679C12.0344 10.4523 13.1841 10.0007 14.375 10.0007C15.566 10.0007 16.7157 10.4523 17.5695 11.2679C18.4246 12.0849 18.9128 13.2016 18.9128 14.375C18.9128 15.5484 18.4246 16.6651 17.5695 17.4821C16.7157 18.2977 15.566 18.7493 14.375 18.7493C13.1841 18.7493 12.0344 18.2977 11.1806 17.4821C10.3255 16.6651 9.83725 15.5484 9.83725 14.375C9.83725 13.2016 10.3255 12.0849 11.1806 11.2679Z" fill="#3A3836"/>
</svg>
