<svg width="28" height="28" viewBox="0 0 28 28" fill="none" xmlns="http://www.w3.org/2000/svg">
<path d="M24 14C24 15.3132 23.7413 16.6136 23.2388 17.8268C22.7363 19.0401 21.9997 20.1425 21.0711 21.0711C20.1425 21.9997 19.0401 22.7363 17.8268 23.2388C16.6136 23.7413 15.3132 24 14 24C12.6868 24 11.3864 23.7413 10.1732 23.2388C8.95991 22.7363 7.85752 21.9997 6.92893 21.0711C6.00035 20.1425 5.26375 19.0401 4.7612 17.8268C4.25866 16.6136 4 15.3132 4 14C4 11.3478 5.05357 8.8043 6.92893 6.92893C8.8043 5.05357 11.3478 4 14 4C16.6522 4 19.1957 5.05357 21.0711 6.92893C22.9464 8.8043 24 11.3478 24 14Z" stroke="#3A3836" stroke-width="1.5" stroke-linecap="round" stroke-linejoin="round"/>
<path d="M20.6667 7.33334L16.75 11.25M16.75 11.25C18.2478 12.7489 18.2478 15.2522 16.75 16.75M16.75 11.25C15.2522 9.75223 12.7489 9.75223 11.25 11.25M7.33334 20.6667L11.25 16.75M11.25 16.75C9.75222 15.2522 9.75222 12.7489 11.25 11.25M11.25 16.75C12.7478 18.2478 15.2511 18.2478 16.75 16.75M7.33334 7.33334L11.25 11.25M20.6667 20.6667L16.75 16.75" stroke="#3A3836" stroke-width="1.5" stroke-linecap="round" stroke-linejoin="round"/>
</svg>
