<svg width="28" height="28" viewBox="0 0 28 28" fill="none" xmlns="http://www.w3.org/2000/svg">
<path fill-rule="evenodd" clip-rule="evenodd" d="M21.7319 16.8458C21.5037 16.6203 21.1899 16.49 20.8583 16.49H6.975C6.64347 16.49 6.32963 16.6203 6.10145 16.8458C5.87397 17.0706 5.75 17.3711 5.75 17.68V18.66C5.75 21.3332 8.41574 24.75 13.9167 24.75C19.4176 24.75 22.0833 21.3332 22.0833 18.66V17.68C22.0833 17.3711 21.9594 17.0706 21.7319 16.8458ZM16.5433 4.82343C15.8501 4.13847 14.9057 3.75 13.9167 3.75C12.9276 3.75 11.9832 4.13847 11.2901 4.82343C10.5977 5.5077 10.2125 6.43134 10.2125 7.39C10.2125 8.34866 10.5977 9.2723 11.2901 9.95657C11.9832 10.6415 12.9276 11.03 13.9167 11.03C14.9057 11.03 15.8501 10.6415 16.5433 9.95657C17.2357 9.2723 17.6208 8.34866 17.6208 7.39C17.6208 6.43134 17.2357 5.5077 16.5433 4.82343ZM22.962 15.6011C22.4041 15.0497 21.6474 14.74 20.8583 14.74H6.975C6.18598 14.74 5.42928 15.0497 4.87136 15.6011C4.31344 16.1525 4 16.9003 4 17.68V18.66C4 22.5232 7.689 26.5 13.9167 26.5C20.1443 26.5 23.8333 22.5232 23.8333 18.66V17.68C23.8333 16.9003 23.5199 16.1525 22.962 15.6011ZM17.7733 3.57869C16.7505 2.56787 15.3632 2 13.9167 2C12.4701 2 11.0828 2.56787 10.06 3.57869C9.03713 4.58952 8.4625 5.96048 8.4625 7.39C8.4625 8.81952 9.03713 10.1905 10.06 11.2013C11.0828 12.2121 12.4701 12.78 13.9167 12.78C15.3632 12.78 16.7505 12.2121 17.7733 11.2013C18.7962 10.1905 19.3708 8.81952 19.3708 7.39C19.3708 5.96048 18.7962 4.58952 17.7733 3.57869Z" fill="#3A3836"/>
</svg>
